<?xml version="1.0" encoding="UTF-8" standalone="no"?>
<svg
   width="200"
   height="200"
   enable-background="new 312.809 0 401 401"
   version="1.1"
   viewBox="312.809 0 200 200"
   xml:space="preserve"
   id="svg14"
   sodipodi:docname="blank.svg"
   inkscape:export-filename="D:\repositorios\aluracord\public\images\blank.png"
   inkscape:export-xdpi="96"
   inkscape:export-ydpi="96"
   inkscape:version="1.1.1 (3bf5ae0d25, 2021-09-20)"
   xmlns:inkscape="http://www.inkscape.org/namespaces/inkscape"
   xmlns:sodipodi="http://sodipodi.sourceforge.net/DTD/sodipodi-0.dtd"
   xmlns="http://www.w3.org/2000/svg"
   xmlns:svg="http://www.w3.org/2000/svg"><defs
   id="defs18">
	
	
	
	
	
</defs><sodipodi:namedview
   id="namedview16"
   pagecolor="#ffffff"
   bordercolor="#666666"
   borderopacity="1.0"
   inkscape:pageshadow="2"
   inkscape:pageopacity="0.0"
   inkscape:pagecheckerboard="0"
   showgrid="false"
   inkscape:zoom="1.0124688"
   inkscape:cx="24.692118"
   inkscape:cy="237.53818"
   inkscape:window-width="1920"
   inkscape:window-height="1001"
   inkscape:window-x="-9"
   inkscape:window-y="-9"
   inkscape:window-maximized="1"
   inkscape:current-layer="svg14" />
<rect
   x="312.80899"
   y="-2.9588898e-07"
   width="200"
   height="200"
   fill="#e4e6e7"
   id="rect2"
   style="fill:#ffffff;fill-opacity:1;stroke-width:0.498753" />
<g
   id="g6182"
   transform="matrix(0.85263346,0,0,0.85263346,-103.1738,-20.425029)"><path
     d="m 634.31217,145.05761 c -8.67637,6.82709 -19.60155,10.91419 -31.47246,10.91419 -11.57582,0 -22.26092,-3.88366 -30.82915,-10.41018 -27.9627,4.51963 -49.32189,28.76362 -49.32189,58.00375 0,32.46033 26.31136,11.35773 58.76802,11.35773 h 47.4103 c 32.4585,0 58.77169,21.1026 58.77169,-11.35773 0,-30.61838 -23.4229,-55.76043 -53.32651,-58.50776 z"
     id="path1072"
     style="fill:#55059a;fill-opacity:1;stroke-width:1.83278" /><path
     d="m 602.83971,149.13187 c 24.34846,0 44.15529,-19.8105 44.15529,-44.16078 0,-24.348457 -19.80683,-44.158953 -44.15529,-44.158953 -24.34845,0 -44.15712,19.810496 -44.15712,44.158953 0.002,24.35028 19.8105,44.16078 44.15712,44.16078 z"
     id="path1074"
     style="fill:#55059a;fill-opacity:1;stroke-width:1.83278" /><text
     xml:space="preserve"
     style="font-style:normal;font-variant:normal;font-weight:bold;font-stretch:normal;font-size:71.9596px;line-height:1.25;font-family:sans-serif;-inkscape-font-specification:'sans-serif, Bold';font-variant-ligatures:normal;font-variant-caps:normal;font-variant-numeric:normal;font-variant-east-asian:normal;fill:#ffffff;fill-opacity:1;stroke:none;stroke-width:1.79899"
     x="580.03522"
     y="129.3867"
     id="text3659"><tspan
       sodipodi:role="line"
       id="tspan3657"
       x="580.03522"
       y="129.3867"
       style="font-style:normal;font-variant:normal;font-weight:bold;font-stretch:normal;font-size:71.9596px;font-family:sans-serif;-inkscape-font-specification:'sans-serif, Bold';font-variant-ligatures:normal;font-variant-caps:normal;font-variant-numeric:normal;font-variant-east-asian:normal;stroke-width:1.79899">?</tspan></text></g></svg>
