<?xml version="1.0" encoding="UTF-8" standalone="no"?>
<svg
   width="200"
   height="200"
   enable-background="new 312.809 0 401 401"
   version="1.1"
   viewBox="312.809 0 200 200"
   xml:space="preserve"
   id="svg14"
   sodipodi:docname="error.svg"
   inkscape:export-filename="D:\repositorios\aluracord\public\images\blank.png"
   inkscape:export-xdpi="96"
   inkscape:export-ydpi="96"
   inkscape:version="1.1.1 (3bf5ae0d25, 2021-09-20)"
   xmlns:inkscape="http://www.inkscape.org/namespaces/inkscape"
   xmlns:sodipodi="http://sodipodi.sourceforge.net/DTD/sodipodi-0.dtd"
   xmlns="http://www.w3.org/2000/svg"
   xmlns:svg="http://www.w3.org/2000/svg"><defs
   id="defs18">
	
	
	
	
	
</defs><sodipodi:namedview
   id="namedview16"
   pagecolor="#ffffff"
   bordercolor="#666666"
   borderopacity="1.0"
   inkscape:pageshadow="2"
   inkscape:pageopacity="0.0"
   inkscape:pagecheckerboard="0"
   showgrid="false"
   inkscape:zoom="1.0124688"
   inkscape:cx="24.692119"
   inkscape:cy="237.53818"
   inkscape:window-width="1920"
   inkscape:window-height="1001"
   inkscape:window-x="-9"
   inkscape:window-y="-9"
   inkscape:window-maximized="1"
   inkscape:current-layer="svg14" />
<rect
   x="312.80899"
   y="-2.9588898e-07"
   width="200"
   height="200"
   fill="#e4e6e7"
   id="rect2"
   style="fill:#ffffff;fill-opacity:1;stroke-width:0.498753" />
<g
   id="g921"
   transform="matrix(2.6935573,0,0,2.6935573,342.80933,29.999328)"
   style="fill:#55059a;fill-opacity:1"><g
     id="g867"
     style="fill:#55059a;fill-opacity:1">
	<path
   d="m 44.373,7.603 c -10.137,-10.137 -26.632,-10.138 -36.77,0 -10.138,10.138 -10.137,26.632 0,36.77 10.137,10.138 26.632,10.138 36.77,0 10.137,-10.138 10.137,-26.633 0,-36.77 z m -8.132,28.638 c -0.781,0.781 -2.047,0.781 -2.828,0 l -7.425,-7.425 -7.778,7.778 c -0.781,0.781 -2.047,0.781 -2.828,0 -0.781,-0.781 -0.781,-2.047 0,-2.828 l 7.778,-7.778 -7.425,-7.425 c -0.781,-0.781 -0.781,-2.048 0,-2.828 0.781,-0.781 2.047,-0.781 2.828,0 l 7.425,7.425 7.071,-7.071 c 0.781,-0.781 2.047,-0.781 2.828,0 0.781,0.781 0.781,2.047 0,2.828 l -7.071,7.071 7.425,7.425 c 0.781,0.781 0.781,2.047 0,2.828 z"
   id="path865"
   style="fill:#55059a;fill-opacity:1" />
</g><g
     id="g869"
     style="fill:#55059a;fill-opacity:1">
</g><g
     id="g871"
     style="fill:#55059a;fill-opacity:1">
</g><g
     id="g873"
     style="fill:#55059a;fill-opacity:1">
</g><g
     id="g875"
     style="fill:#55059a;fill-opacity:1">
</g><g
     id="g877"
     style="fill:#55059a;fill-opacity:1">
</g><g
     id="g879"
     style="fill:#55059a;fill-opacity:1">
</g><g
     id="g881"
     style="fill:#55059a;fill-opacity:1">
</g><g
     id="g883"
     style="fill:#55059a;fill-opacity:1">
</g><g
     id="g885"
     style="fill:#55059a;fill-opacity:1">
</g><g
     id="g887"
     style="fill:#55059a;fill-opacity:1">
</g><g
     id="g889"
     style="fill:#55059a;fill-opacity:1">
</g><g
     id="g891"
     style="fill:#55059a;fill-opacity:1">
</g><g
     id="g893"
     style="fill:#55059a;fill-opacity:1">
</g><g
     id="g895"
     style="fill:#55059a;fill-opacity:1">
</g><g
     id="g897"
     style="fill:#55059a;fill-opacity:1">
</g></g></svg>
